<?xml version="1.0" encoding="UTF-8"?>
<svg xmlns="http://www.w3.org/2000/svg" width="560" height="235" viewBox="0 0 560 235" role="img" aria-label="BLK-SHD Lens Work logo">
  <title>BLK-SHD Lens Work logo</title>
  <path d="M 318.00 182.00 L 318.00 199.00 L 319.00 199.00 L 319.00 193.00 L 321.00 191.00 L 324.00 194.00 L 325.00 197.00 L 327.00 199.00 L 329.00 199.00 L 323.00 190.00 L 323.00 188.00 L 328.00 182.00 L 326.00 182.00 L 320.00 190.00 L 319.00 189.00 L 319.00 182.00 Z
    M 306.00 182.00 L 306.00 199.00 L 307.00 199.00 L 307.00 192.00 L 308.00 191.00 L 310.00 191.00 L 313.00 194.00 L 314.00 199.00 L 316.00 199.00 L 313.00 191.00 L 315.00 188.00 L 315.00 184.00 L 313.00 182.00 Z
    M 307.00 184.00 L 308.00 183.00 L 312.00 183.00 L 314.00 186.00 L 313.00 189.00 L 312.00 190.00 L 308.00 190.00 L 307.00 189.00 Z
    M 293.00 182.00 L 291.00 183.00 L 288.00 187.00 L 288.00 194.00 L 292.00 199.00 L 299.00 199.00 L 303.00 194.00 L 303.00 187.00 L 299.00 182.00 Z
    M 293.00 183.00 L 298.00 183.00 L 301.00 186.00 L 302.00 192.00 L 301.00 193.00 L 301.00 195.00 L 298.00 198.00 L 293.00 198.00 L 290.00 195.00 L 289.00 189.00 L 290.00 188.00 L 290.00 186.00 Z
    M 267.00 182.00 L 271.00 199.00 L 273.00 199.00 L 273.00 197.00 L 275.00 193.00 L 275.00 190.00 L 277.00 186.00 L 278.00 187.00 L 280.00 198.00 L 281.00 199.00 L 283.00 199.00 L 283.00 196.00 L 284.00 195.00 L 284.00 192.00 L 286.00 188.00 L 287.00 182.00 L 285.00 182.00 L 285.00 185.00 L 284.00 186.00 L 284.00 189.00 L 282.00 194.00 L 280.00 192.00 L 278.00 182.00 L 276.00 182.00 L 275.00 188.00 L 272.00 195.00 L 271.00 194.00 L 271.00 191.00 L 269.00 186.00 L 269.00 182.00 Z
    M 254.00 182.00 L 252.00 184.00 L 252.00 188.00 L 254.00 190.00 L 257.00 191.00 L 260.00 195.00 L 258.00 198.00 L 253.00 198.00 L 252.00 197.00 L 251.00 198.00 L 252.00 199.00 L 259.00 199.00 L 261.00 197.00 L 261.00 192.00 L 255.00 189.00 L 253.00 185.00 L 255.00 183.00 L 260.00 183.00 L 260.00 182.00 Z
    M 237.00 182.00 L 237.00 199.00 L 238.00 199.00 L 238.00 187.00 L 239.00 186.00 L 243.00 191.00 L 246.00 197.00 L 249.00 199.00 L 249.00 182.00 L 248.00 182.00 L 248.00 194.00 L 247.00 195.00 L 241.00 186.00 L 240.00 183.00 L 239.00 182.00 Z
    M 226.00 182.00 L 226.00 199.00 L 235.00 199.00 L 235.00 198.00 L 228.00 198.00 L 227.00 197.00 L 227.00 192.00 L 228.00 191.00 L 234.00 191.00 L 234.00 190.00 L 228.00 190.00 L 227.00 189.00 L 227.00 184.00 L 228.00 183.00 L 234.00 183.00 L 234.00 182.00 Z
    M 215.00 182.00 L 215.00 199.00 L 224.00 199.00 L 224.00 198.00 L 217.00 198.00 L 216.00 197.00 L 216.00 182.00 Z
    M 267.00 112.00 L 261.00 116.00 L 259.00 120.00 L 259.00 127.00 L 263.00 133.00 L 267.00 135.00 L 274.00 135.00 L 280.00 131.00 L 282.00 127.00 L 282.00 120.00 L 278.00 114.00 L 274.00 112.00 Z
    M 441.00 80.00 L 440.00 81.00 L 440.00 166.00 L 471.00 166.00 L 472.00 165.00 L 476.00 165.00 L 477.00 164.00 L 482.00 163.00 L 493.00 157.00 L 501.00 148.00 L 505.00 140.00 L 506.00 133.00 L 507.00 132.00 L 507.00 113.00 L 506.00 112.00 L 505.00 106.00 L 501.00 98.00 L 494.00 90.00 L 488.00 86.00 L 478.00 82.00 L 469.00 81.00 L 468.00 80.00 Z
    M 462.00 101.00 L 469.00 101.00 L 470.00 102.00 L 473.00 102.00 L 480.00 106.00 L 485.00 113.00 L 486.00 120.00 L 487.00 121.00 L 486.00 130.00 L 482.00 138.00 L 476.00 143.00 L 474.00 143.00 L 470.00 145.00 L 462.00 145.00 L 461.00 144.00 L 461.00 102.00 Z
    M 362.00 80.00 L 361.00 81.00 L 361.00 166.00 L 382.00 166.00 L 382.00 133.00 L 383.00 132.00 L 403.00 132.00 L 404.00 133.00 L 404.00 166.00 L 425.00 166.00 L 425.00 80.00 L 404.00 80.00 L 404.00 112.00 L 403.00 113.00 L 383.00 113.00 L 382.00 112.00 L 382.00 80.00 Z
    M 188.00 80.00 L 187.00 81.00 L 187.00 166.00 L 208.00 166.00 L 208.00 126.00 L 209.00 125.00 L 229.00 166.00 L 255.00 166.00 L 251.00 158.00 L 246.00 151.00 L 244.00 146.00 L 242.00 144.00 L 240.00 139.00 L 235.00 132.00 L 233.00 127.00 L 228.00 120.00 L 228.00 118.00 L 230.00 114.00 L 232.00 112.00 L 236.00 103.00 L 238.00 101.00 L 249.00 80.00 L 225.00 80.00 L 209.00 113.00 L 208.00 112.00 L 208.00 80.00 Z
    M 132.00 80.00 L 131.00 81.00 L 131.00 166.00 L 178.00 166.00 L 178.00 147.00 L 153.00 147.00 L 152.00 146.00 L 152.00 80.00 Z
    M 61.00 80.00 L 60.00 81.00 L 60.00 166.00 L 94.00 166.00 L 95.00 165.00 L 102.00 164.00 L 111.00 159.00 L 115.00 154.00 L 118.00 148.00 L 118.00 144.00 L 119.00 143.00 L 119.00 135.00 L 118.00 134.00 L 118.00 131.00 L 116.00 127.00 L 108.00 120.00 L 108.00 119.00 L 112.00 115.00 L 115.00 107.00 L 115.00 100.00 L 114.00 99.00 L 114.00 95.00 L 112.00 91.00 L 108.00 86.00 L 103.00 83.00 L 101.00 83.00 L 97.00 81.00 L 92.00 81.00 L 91.00 80.00 Z
    M 80.00 130.00 L 81.00 129.00 L 90.00 129.00 L 91.00 130.00 L 93.00 130.00 L 98.00 136.00 L 98.00 141.00 L 97.00 143.00 L 92.00 147.00 L 85.00 147.00 L 84.00 148.00 L 81.00 148.00 L 80.00 147.00 Z
    M 80.00 99.00 L 81.00 98.00 L 90.00 98.00 L 92.00 99.00 L 95.00 102.00 L 95.00 105.00 L 96.00 106.00 L 95.00 107.00 L 95.00 110.00 L 90.00 114.00 L 81.00 114.00 L 80.00 113.00 Z
    M 312.00 79.00 L 302.00 83.00 L 296.00 89.00 L 294.00 92.00 L 294.00 94.00 L 292.00 98.00 L 292.00 109.00 L 295.00 116.00 L 302.00 123.00 L 312.00 128.00 L 314.00 128.00 L 324.00 132.00 L 329.00 137.00 L 329.00 144.00 L 323.00 149.00 L 317.00 149.00 L 316.00 148.00 L 314.00 148.00 L 311.00 145.00 L 309.00 141.00 L 309.00 139.00 L 289.00 139.00 L 289.00 144.00 L 290.00 145.00 L 290.00 148.00 L 292.00 153.00 L 300.00 162.00 L 305.00 165.00 L 307.00 165.00 L 311.00 167.00 L 323.00 168.00 L 324.00 167.00 L 329.00 167.00 L 337.00 164.00 L 346.00 156.00 L 348.00 153.00 L 348.00 151.00 L 350.00 147.00 L 350.00 134.00 L 349.00 133.00 L 348.00 128.00 L 342.00 121.00 L 333.00 116.00 L 331.00 116.00 L 328.00 114.00 L 326.00 114.00 L 316.00 110.00 L 311.00 104.00 L 312.00 100.00 L 315.00 97.00 L 321.00 96.00 L 327.00 100.00 L 328.00 105.00 L 347.00 105.00 L 347.00 100.00 L 343.00 90.00 L 341.00 87.00 L 335.00 82.00 L 327.00 79.00 Z
    M 210.00 50.00 L 211.00 51.00 L 218.00 51.00 L 219.00 52.00 L 214.00 55.00 L 212.00 55.00 L 211.00 56.00 L 212.00 57.00 L 220.00 54.00 L 221.00 53.00 L 220.00 52.00 L 221.00 51.00 L 229.00 51.00 L 230.00 52.00 L 229.00 53.00 L 230.00 54.00 L 232.00 54.00 L 237.00 57.00 L 239.00 57.00 L 240.00 56.00 L 236.00 54.00 L 234.00 54.00 L 231.00 52.00 L 232.00 51.00 L 240.00 51.00 L 239.00 49.00 L 211.00 49.00 Z
    M 311.00 55.00 L 313.00 56.00 L 317.00 53.00 L 320.00 49.00 L 320.00 47.00 L 323.00 40.00 L 333.00 40.00 L 333.00 39.00 L 307.00 39.00 L 307.00 40.00 L 319.00 40.00 L 320.00 41.00 L 318.00 48.00 L 316.00 51.00 Z
    M 277.00 29.00 L 277.00 51.00 L 278.00 53.00 L 283.00 55.00 L 295.00 55.00 L 296.00 54.00 L 299.00 54.00 L 298.00 52.00 L 296.00 52.00 L 295.00 53.00 L 282.00 53.00 L 279.00 51.00 L 279.00 43.00 L 281.00 41.00 L 292.00 38.00 L 296.00 36.00 L 296.00 35.00 L 294.00 34.00 L 287.00 38.00 L 280.00 40.00 L 279.00 39.00 L 279.00 29.00 Z
    M 357.00 28.00 L 354.00 28.00 L 354.00 34.00 L 353.00 35.00 L 340.00 35.00 L 341.00 37.00 L 351.00 37.00 L 352.00 38.00 L 352.00 39.00 L 343.00 48.00 L 339.00 50.00 L 340.00 52.00 L 346.00 48.00 L 353.00 40.00 L 354.00 41.00 L 354.00 54.00 L 353.00 55.00 L 348.00 55.00 L 348.00 56.00 L 355.00 56.00 L 356.00 55.00 L 356.00 38.00 L 357.00 37.00 L 365.00 37.00 L 366.00 36.00 L 366.00 35.00 L 357.00 35.00 L 356.00 34.00 L 356.00 29.00 Z
    M 295.00 28.00 L 294.00 29.00 L 298.00 33.00 L 298.00 31.00 Z
    M 252.00 28.00 L 252.00 38.00 L 253.00 40.00 L 246.00 46.00 L 245.00 48.00 L 245.00 53.00 L 247.00 55.00 L 249.00 55.00 L 250.00 56.00 L 267.00 56.00 L 267.00 54.00 L 250.00 54.00 L 247.00 52.00 L 247.00 48.00 L 251.00 44.00 L 256.00 41.00 L 266.00 38.00 L 266.00 37.00 L 264.00 36.00 L 258.00 39.00 L 255.00 39.00 L 254.00 38.00 L 254.00 29.00 L 255.00 28.00 Z
    M 177.00 29.00 L 177.00 35.00 L 179.00 35.00 L 179.00 31.00 L 180.00 30.00 L 184.00 30.00 L 185.00 31.00 L 182.00 44.00 L 184.00 44.00 L 185.00 43.00 L 197.00 43.00 L 198.00 44.00 L 198.00 46.00 L 196.00 48.00 L 176.00 48.00 L 176.00 49.00 L 196.00 49.00 L 197.00 50.00 L 196.00 54.00 L 194.00 56.00 L 189.00 55.00 L 189.00 57.00 L 196.00 57.00 L 198.00 55.00 L 198.00 53.00 L 200.00 49.00 L 206.00 49.00 L 206.00 48.00 L 200.00 48.00 L 199.00 47.00 L 200.00 45.00 L 200.00 42.00 L 199.00 41.00 L 186.00 41.00 L 185.00 40.00 L 185.00 38.00 L 186.00 37.00 L 200.00 37.00 L 200.00 35.00 L 187.00 35.00 L 186.00 34.00 L 186.00 32.00 L 188.00 30.00 L 202.00 30.00 L 203.00 31.00 L 203.00 35.00 L 205.00 35.00 L 205.00 28.00 L 178.00 28.00 Z
    M 332.00 32.00 L 329.00 27.00 L 328.00 28.00 L 329.00 29.00 L 328.00 30.00 L 310.00 30.00 L 310.00 31.00 L 328.00 31.00 L 329.00 29.00 L 330.00 31.00 Z
    M 211.00 30.00 L 211.00 31.00 L 223.00 31.00 L 224.00 32.00 L 223.00 34.00 L 215.00 34.00 L 215.00 46.00 L 216.00 47.00 L 235.00 47.00 L 235.00 34.00 L 227.00 34.00 L 226.00 32.00 L 227.00 31.00 L 239.00 31.00 L 239.00 30.00 L 227.00 30.00 L 226.00 29.00 L 226.00 27.00 L 224.00 27.00 L 224.00 29.00 L 223.00 30.00 Z
    M 217.00 44.00 L 218.00 43.00 L 232.00 43.00 L 233.00 45.00 L 232.00 46.00 L 218.00 46.00 Z
    M 217.00 40.00 L 218.00 39.00 L 232.00 39.00 L 233.00 41.00 L 232.00 42.00 L 218.00 42.00 Z
    M 217.00 36.00 L 218.00 35.00 L 232.00 35.00 L 233.00 37.00 L 232.00 38.00 L 218.00 38.00 Z
    M 332.00 26.00 L 334.00 30.00 L 336.00 31.00 L 334.00 27.00 Z
    M 299.00 26.00 L 298.00 27.00 L 302.00 31.00 L 302.00 29.00 Z
    M 18.00 13.00 L 18.00 211.00 L 19.00 212.00 L 536.00 212.00 L 537.00 211.00 L 537.00 13.00 L 536.00 12.00 L 19.00 12.00 Z
    M 23.00 19.00 L 24.00 18.00 L 531.00 18.00 L 532.00 19.00 L 532.00 205.00 L 531.00 206.00 L 24.00 206.00 L 23.00 205.00 Z" fill="#ffffff" fill-rule="evenodd"/>
</svg>
